# File created by Blade
# Date/Time:  Thu Sep 25 15:55:53 2014
# Frame Rate: 120.000 fps
#------------------------------------------------------
:FULLY-SPECIFIED
:DEGREES
315
root -2.654224 33.104991 3.564740 0.578975 -2.815767 10.914787
Spine -6.904823 12.237638 -12.642396
Head -4.963778 -12.212352 5.675737
LeftShoulder -12.800999 27.837923 13.349116
LeftArm 23.254733 20.336317 -67.100001
LeftForeArm 13.096750 -0.000000 22.342905
LeftHand -26.588485 -0.000000 -3.084368
LeftHandThumb1 -26.253704 0.000000 33.147579
RightShoulder -15.756074 10.666061 -27.898850
RightArm 1.231140 3.253085 37.062805
RightForeArm -22.511636 -0.000000 71.757519
RightHand -3.098893 -0.000000 -1.099602
RightHandThumb1 -24.326973 -0.000000 -32.862282
LeftUpLeg -22.182619 7.242625 -3.998665
LeftLeg 39.932001 -0.000000 -0.000000
LeftFoot -15.813040 13.336586 -33.488151
LeftToeBase 2.333152 -0.000000 -0.000000
RightUpLeg -2.597328 -5.580205 -8.063636
RightLeg 18.406655 -0.000000 -0.000000
RightFoot -15.992567 -10.280347 -12.743182
RightToeBase -4.945765 -0.000000 0.000000
316
root -2.613603 33.085849 3.639155 0.730215 -2.897555 10.530270
Spine -7.247074 11.925800 -12.384191
Head -4.848264 -11.820508 6.026105
LeftShoulder -12.929474 27.883075 13.184618
LeftArm 23.085912 20.191834 -67.126456
LeftForeArm 13.007336 -0.000000 22.778188
LeftHand -26.730202 -0.000000 -2.588891
LeftHandThumb1 -26.253704 0.000000 33.147579
RightShoulder -16.110438 10.578338 -27.781735
RightArm 1.461886 3.095599 37.667965
RightForeArm -22.502594 -0.000000 72.212240
RightHand -3.122928 -0.000000 -1.146792
RightHandThumb1 -24.326973 -0.000000 -32.862282
LeftUpLeg -20.325877 6.961694 -4.059527
LeftLeg 38.854250 -0.000000 -0.000000
LeftFoot -16.403302 13.420014 -34.413554
LeftToeBase 2.462984 -0.000000 -0.000000
RightUpLeg -2.553286 -5.283908 -7.740477
RightLeg 18.289901 -0.000000 -0.000000
RightFoot -16.114075 -10.173049 -12.378554
RightToeBase -4.626726 -0.000000 0.000000
317
root -2.567913 33.064071 3.708178 0.923559 -2.953376 10.137423
Spine -7.610121 11.635055 -12.128288
Head -4.811343 -11.579059 6.471891
LeftShoulder -13.050564 27.939873 13.065551
LeftArm 22.964008 20.053785 -67.187269
LeftForeArm 13.003845 -0.000000 23.276584
LeftHand -26.868297 0.000000 -1.958978
LeftHandThumb1 -26.253704 0.000000 33.147579
RightShoulder -16.403846 10.598867 -27.670159
RightArm 1.490752 2.984905 38.280851
RightForeArm -22.410351 0.000000 72.660014
RightHand -3.168463 -0.000000 -0.949039
RightHandThumb1 -24.326973 -0.000000 -32.862282
LeftUpLeg -18.564966 6.706281 -4.125411
LeftLeg 37.520268 -0.000000 -0.000000
LeftFoot -16.615585 13.646654 -35.565920
LeftToeBase 2.290679 -0.000000 -0.000000
RightUpLeg -2.569897 -5.019796 -7.416642
RightLeg 18.187186 -0.000000 -0.000000
RightFoot -16.115109 -10.247179 -12.473241
RightToeBase -4.589927 -0.000000 0.000000
318
root -2.526850 33.039914 3.781445 1.035706 -2.998789 9.697525
Spine -7.848332 11.342731 -11.803434
Head -4.829689 -11.303382 6.946060
LeftShoulder -13.143289 28.063224 12.972784
LeftArm 22.838708 19.772778 -67.355344
LeftForeArm 13.112019 0.000000 23.884046
LeftHand -27.124238 -0.000000 -1.280654
LeftHandThumb1 -26.253704 0.000000 33.147579
RightShoulder -16.655884 10.564047 -27.578545
RightArm 1.504942 2.888196 38.988287
RightForeArm -22.272590 -0.000000 73.175243
RightHand -2.881513 0.000000 -1.054464
RightHandThumb1 -24.326973 -0.000000 -32.862282
LeftUpLeg -16.689806 6.320818 -4.086332
LeftLeg 35.887220 -0.000000 -0.000000
LeftFoot -16.519451 13.684243 -36.805214
LeftToeBase 2.609189 -0.000000 -0.000000
RightUpLeg -2.494050 -4.816148 -7.047914
RightLeg 18.080864 -0.000000 -0.000000
RightFoot -16.131756 -10.209427 -12.512799
RightToeBase -4.496855 -0.000000 0.000000
319
root -2.487787 33.012151 3.846591 1.169233 -3.019930 9.184949
Spine -8.049467 11.106085 -11.363295
Head -4.947275 -11.099428 7.334740
LeftShoulder -13.207581 28.071289 12.873842
LeftArm 22.726839 19.677469 -67.449364
LeftForeArm 12.936766 -0.000000 24.495625
LeftHand -27.383320 -0.000000 -0.326578
LeftHandThumb1 -26.253704 0.000000 33.147579
RightShoulder -16.949971 10.346013 -27.528505
RightArm 1.609994 2.933978 39.799016
RightForeArm -22.074476 -0.000000 73.614353
RightHand -3.205583 -0.000000 -0.916398
RightHandThumb1 -24.326973 -0.000000 -32.862282
LeftUpLeg -14.891723 5.901300 -3.950859
LeftLeg 34.037130 -0.000000 -0.000000
LeftFoot -15.922038 13.483856 -37.774615
LeftToeBase 2.701953 -0.000000 -0.000000
RightUpLeg -2.454530 -4.478521 -6.591976
RightLeg 18.020143 -0.000000 -0.000000
RightFoot -16.160478 -10.394483 -12.443518
RightToeBase -4.465108 -0.000000 0.000000
